<svg width="34" height="36" viewBox="0 0 34 36" fill="none" xmlns="http://www.w3.org/2000/svg">
<path d="M16 32.5C17.4667 32.5 18.6667 31.3 18.6667 29.8333H13.3333C13.3333 31.3 14.5333 32.5 16 32.5ZM24 24.5V17.8333C24 13.74 21.8267 10.3133 18 9.40667V8.5C18 7.39333 17.1067 6.5 16 6.5C14.8933 6.5 14 7.39333 14 8.5V9.40667C10.1867 10.3133 8.00001 13.7267 8.00001 17.8333V24.5L5.33334 27.1667V28.5H26.6667V27.1667L24 24.5ZM21.3333 25.8333H10.6667V17.8333C10.6667 14.5267 12.68 11.8333 16 11.8333C19.32 11.8333 21.3333 14.5267 21.3333 17.8333V25.8333Z" fill="#64748B"/>
<path d="M26 11.8334C27.8409 11.8334 29.3333 10.341 29.3333 8.50002C29.3333 6.65907 27.8409 5.16669 26 5.16669C24.159 5.16669 22.6667 6.65907 22.6667 8.50002C22.6667 10.341 24.159 11.8334 26 11.8334Z" fill="#F43F5E"/>
</svg>
