<svg width="32" height="32" viewBox="0 0 32 32" fill="none" xmlns="http://www.w3.org/2000/svg">
<g clip-path="url(#clip0_817_4694)">
<rect width="32" height="32" rx="16" fill="white"/>
<mask id="mask0_817_4694" style="mask-type:luminance" maskUnits="userSpaceOnUse" x="0" y="0" width="32" height="32">
<path d="M0 0H32V32H0V0Z" fill="white"/>
</mask>
<g mask="url(#mask0_817_4694)">
<path d="M28.6753 0H1.66233C0.748026 0 0 0.761887 0 1.69313V4.74073C0 5.67197 0.748026 6.43386 1.66233 6.43386H28.5922C29.5065 6.43386 30.2545 5.67197 30.2545 4.74073V1.69313C30.3377 0.761887 29.5896 0 28.6753 0ZM28.6753 17.0159H1.66233C0.748026 17.0159 0 17.7778 0 18.709V21.7566C0 22.6878 0.748026 23.4497 1.66233 23.4497H28.5922C29.5065 23.4497 30.2545 22.6878 30.2545 21.7566V18.709C30.3377 17.7778 29.5896 17.0159 28.6753 17.0159ZM16.8727 25.5661H1.66233C0.748026 25.5661 0 26.328 0 27.2593V30.3069C0 31.2381 0.748026 32 1.66233 32H16.8727C17.787 32 18.5351 31.2381 18.5351 30.3069V27.2593C18.5351 26.328 17.787 25.5661 16.8727 25.5661ZM30.3377 8.55027H1.66233C0.748026 8.55027 0 9.31216 0 10.2433V13.291C0 14.2222 0.748026 14.9841 1.66233 14.9841H30.3377C31.252 14.9841 32 14.2222 32 13.291V10.2433C32 9.31216 31.252 8.55027 30.3377 8.55027Z" fill="#0BA4DB"/>
</g>
</g>
<defs>
<clipPath id="clip0_817_4694">
<rect width="32" height="32" rx="16" fill="white"/>
</clipPath>
</defs>
</svg>
